<?xml version="1.0" encoding="utf-8"?>
<!-- Generator: Adobe Illustrator 23.0.4, SVG Export Plug-In . SVG Version: 6.00 Build 0)  -->
<svg version="1.1" id="Calque_1" xmlns="http://www.w3.org/2000/svg" xmlns:xlink="http://www.w3.org/1999/xlink" x="0px" y="0px"
	 viewBox="0 0 76 76" style="enable-background:new 0 0 76 76;" xml:space="preserve">
<style type="text/css">
	.st0{fill:#FFFFFF;}
</style>
<g>
	<path class="st0" d="M72.8,33.7h-19c-1.1,0-2-0.9-2-2s0.9-2,2-2h17v-17c0-1.1,0.9-2,2-2s2,0.9,2,2v19
		C74.8,32.8,73.9,33.7,72.8,33.7z"/>
</g>
<g>
	<path class="st0" d="M3.2,65.3c-1.1,0-2-0.9-2-2v-19c0-1.1,0.9-2,2-2h19c1.1,0,2,0.9,2,2s-0.9,2-2,2h-17v17
		C5.2,64.4,4.3,65.3,3.2,65.3z"/>
</g>
<g>
	<path class="st0" d="M38,68.5c-7.8,0-15.6-3-21.6-8.9L1.8,45.8C1,45,1,43.8,1.7,43c0.8-0.8,2-0.8,2.8-0.1l14.7,13.8
		c10.4,10.4,27.2,10.4,37.5,0.1c2.8-2.8,4.9-6.2,6.2-9.9c0.4-1,1.5-1.6,2.6-1.2c1,0.4,1.6,1.5,1.2,2.6c-1.5,4.3-4,8.2-7.2,11.4
		C53.6,65.5,45.8,68.5,38,68.5z M72.8,33.7c-0.5,0-1-0.2-1.4-0.5L56.8,19.3c-2.8-2.8-6.2-5-9.9-6.3c-6.7-2.4-13.9-2-20.3,1.1
		c-6.4,3-11.2,8.4-13.6,15.1c-0.4,1-1.5,1.6-2.6,1.2c-1-0.4-1.6-1.5-1.2-2.6c2.7-7.7,8.3-13.8,15.6-17.4C32.2,7,40.5,6.5,48.2,9.3
		c4.3,1.5,8.2,4,11.4,7.2l14.6,13.8c0.8,0.8,0.8,2,0.1,2.8C73.9,33.5,73.4,33.7,72.8,33.7z"/>
</g>
</svg>
